<?xml version="1.0" encoding="UTF-8" standalone="no"?> <svg xmlns="http://www.w3.org/2000/svg" viewBox="0 0 64 64"><g id="Layer_49" data-name="Layer 49"><path d="M32,19.05A13,13,0,0,0,19.05,32c.71,17.18,25.19,17.18,25.9,0A13,13,0,0,0,32,19.05ZM32,42a10,10,0,0,1-9.95-10C22.6,18.8,41.41,18.8,42,32A10,10,0,0,1,32,42Z"/><path d="M60.2,26.66l-7.68-1.05A21.93,21.93,0,0,0,51,22l4.69-6.17a1.51,1.51,0,0,0-.14-2L50.14,8.42a1.51,1.51,0,0,0-2-.14L42,13a21.93,21.93,0,0,0-3.61-1.49l-1-7.68a1.51,1.51,0,0,0-1.49-1.3h-7.7a1.51,1.51,0,0,0-1.49,1.3l-1.05,7.68A21.93,21.93,0,0,0,22,13L15.83,8.28a1.51,1.51,0,0,0-2,.14L8.42,13.86a1.51,1.51,0,0,0-.14,2L13,22a21.93,21.93,0,0,0-1.49,3.61L3.8,26.66a1.51,1.51,0,0,0-1.3,1.49v7.7a1.51,1.51,0,0,0,1.3,1.49l7.68,1A21.93,21.93,0,0,0,13,42L8.28,48.17a1.51,1.51,0,0,0,.14,2l5.44,5.44a1.51,1.51,0,0,0,2,.14L22,51a21.93,21.93,0,0,0,3.61,1.49l1.05,7.68a1.51,1.51,0,0,0,1.49,1.3h7.7a1.51,1.51,0,0,0,1.49-1.3l1-7.68A21.93,21.93,0,0,0,42,51l6.17,4.69a1.51,1.51,0,0,0,2-.14l5.44-5.44a1.51,1.51,0,0,0,.14-2L51,42a21.93,21.93,0,0,0,1.49-3.61l7.68-1a1.51,1.51,0,0,0,1.3-1.49v-7.7A1.51,1.51,0,0,0,60.2,26.66Zm-1.7,7.88-7.35,1a1.52,1.52,0,0,0-1.13.82,21,21,0,0,1-2.06,5h0A1.5,1.5,0,0,0,48.05,43l4.49,5.9-3.6,3.6L43,48.05A1.52,1.52,0,0,0,41.36,48a18,18,0,0,1-4.7,1.95,1.52,1.52,0,0,0-1.12,1.25l-1,7.34H29.46l-1-7.34a1.51,1.51,0,0,0-1.11-1.25A18.15,18.15,0,0,1,22.63,48a1.5,1.5,0,0,0-1.67.09l-5.9,4.49-3.6-3.6L16,43A1.5,1.5,0,0,0,16,41.37h0a19.83,19.83,0,0,1-2-4.92,1.56,1.56,0,0,0-1.18-.91l-7.34-1V29.46l7.34-1a1.54,1.54,0,0,0,1.25-1.11A18.29,18.29,0,0,1,16,22.63h0A1.5,1.5,0,0,0,16,21l-4.49-5.9,3.6-3.6L21,16a1.55,1.55,0,0,0,1.32.24,22.21,22.21,0,0,1,5.07-2.1,1.55,1.55,0,0,0,1.11-1.25l1-7.34h5.08l1,7.34A1.53,1.53,0,0,0,36.38,14a20.17,20.17,0,0,1,5,2A1.53,1.53,0,0,0,43,16l5.9-4.49,3.6,3.6L48.05,21A1.5,1.5,0,0,0,48,22.63h0a18.29,18.29,0,0,1,1.95,4.72,1.54,1.54,0,0,0,1.25,1.11l7.34,1Z"/></g></svg>
